<svg width="40" height="40" viewBox="0 0 40 40" fill="none" xmlns="http://www.w3.org/2000/svg">
<g filter="url(#filter0_b_16302_58207)">
<rect width="40" height="40" rx="8" fill="white" fill-opacity="0.94"/>
<path fill-rule="evenodd" clip-rule="evenodd" d="M16.1503 27.4619C10.9702 26.0871 10.1862 22.9613 13.102 19.6526L11.464 17.1997C6.51068 22.3089 9.51047 27.2622 16.1503 27.4666V27.4619ZM30.6098 17.8671C32.0098 23.0397 29.6942 25.2825 25.37 24.4117L24.0633 27.0568C30.9654 28.7929 33.7552 23.7173 30.6098 17.8661V17.8671ZM15.0368 10.1548C18.8141 6.35606 21.9166 7.24368 23.3259 11.4195L26.2697 11.2328C24.3246 4.3839 18.5332 4.50523 15.0378 10.1548H15.0368Z" fill="#2B2D93"/>
<path fill-rule="evenodd" clip-rule="evenodd" d="M22.498 29.2474L22.1088 28.9945C19.6028 27.3647 17.3429 25.3846 15.398 23.1143C13.2973 20.6793 11.6132 17.9139 10.414 14.9298C10.3953 14.885 10.3766 14.8365 10.3589 14.7945L10.609 14.6675C13.2467 13.3068 16.0639 12.3263 18.9765 11.7555C22.261 11.1013 25.6335 11.017 28.9466 11.5063C28.9391 11.6621 28.9298 11.8124 28.9204 11.9655C28.7657 14.878 28.2053 17.7546 27.2553 20.5122C26.1794 23.6731 24.5694 26.6261 22.4952 29.2427L22.498 29.2474ZM24.0437 27.0578L23.6806 26.9168C21.3189 26.0047 19.1002 24.7588 17.0921 23.217C14.9263 21.5684 13.0479 19.5731 11.533 17.3117L11.463 17.209C11.5246 17.1596 11.5862 17.1092 11.6497 17.0606C13.5959 15.474 15.7568 14.1708 18.0684 13.19C20.6735 12.0705 23.4519 11.4075 26.2818 11.23C26.3033 11.3588 26.3229 11.4867 26.3416 11.6192C26.7226 14.0597 26.7609 16.5415 26.4554 18.9927C26.1185 21.799 25.3031 24.5269 24.0446 27.0578H24.0437Z" fill="#D3D4D6"/>
<path fill-rule="evenodd" clip-rule="evenodd" d="M17.3946 14.6227H20.3355C21.141 14.8215 21.6264 15.2453 21.841 15.7343C21.9541 15.996 21.9978 16.2824 21.968 16.566C21.9361 16.8608 21.8354 17.1441 21.674 17.3929C21.3221 17.937 20.6706 18.3487 19.7849 18.3636C19.2678 18.2703 19.0074 18.8256 19.4451 19.2493L22.3926 21.9841H17.3946C17.3221 21.9838 17.2527 21.9549 17.2015 21.9037C17.1502 21.8525 17.1213 21.783 17.1211 21.7106V14.8971C17.1211 14.8245 17.1499 14.7549 17.2011 14.7034C17.2524 14.652 17.322 14.623 17.3946 14.6227ZM22.3236 14.6227H24.3769C24.4491 14.6232 24.5181 14.6521 24.5691 14.7031C24.6201 14.7541 24.649 14.8231 24.6495 14.8953V21.7087C24.6492 21.781 24.6205 21.8503 24.5694 21.9015C24.5184 21.9527 24.4492 21.9817 24.3769 21.9822H23.8981L20.9012 19.2017C21.5735 18.9806 22.15 18.5359 22.5345 17.9417C22.7828 17.557 22.9369 17.1193 22.9844 16.664C23.0232 16.2963 22.9847 15.9245 22.8712 15.5727C22.7577 15.2208 22.5718 14.8966 22.3254 14.6208L22.3236 14.6227Z" fill="#2B2D93"/>
<path fill-rule="evenodd" clip-rule="evenodd" d="M11.3257 33.8852V29.7841H12.6669V33.8852H11.3257Z" fill="#2B2D93"/>
<path fill-rule="evenodd" clip-rule="evenodd" d="M14.7699 31.5462H15.3691C15.5794 31.5462 15.7241 31.5182 15.8031 31.4622C15.8459 31.4261 15.8791 31.3801 15.9 31.3282C15.9208 31.2763 15.9286 31.2201 15.9226 31.1644C15.9288 31.1083 15.9211 31.0514 15.9003 30.9989C15.8795 30.9463 15.8461 30.8997 15.8031 30.863C15.7228 30.806 15.5698 30.778 15.3364 30.778H14.7699V31.5462ZM13.4697 33.8852V29.7831H15.4298C16.0448 29.7831 16.4826 29.8764 16.7467 30.0631C17.0109 30.2498 17.1397 30.5484 17.1397 30.9675C17.1482 31.1864 17.0921 31.4029 16.9782 31.59C16.855 31.7682 16.6805 31.9046 16.4779 31.9811C16.6744 32.0099 16.8526 32.1123 16.9763 32.2677C17.0809 32.4095 17.1322 32.6177 17.1443 32.8902L17.1658 33.4605C17.1649 33.4651 17.1649 33.4699 17.1658 33.4745C17.1705 33.6378 17.2097 33.7237 17.2825 33.7312V33.887H15.9618C15.9384 33.7881 15.9198 33.7004 15.9076 33.6294C15.8971 33.5731 15.8911 33.5159 15.8899 33.4586V33.0489C15.8899 32.8379 15.8479 32.6889 15.7639 32.6018C15.6799 32.5159 15.5362 32.473 15.3299 32.473H14.7699V33.887L13.4697 33.8852Z" fill="#2B2D93"/>
<path fill-rule="evenodd" clip-rule="evenodd" d="M20.4825 32.2948H21.7304C21.6949 32.8361 21.5049 33.2558 21.1601 33.5539C20.8154 33.8519 20.3506 34.0007 19.7657 34C19.1074 34 18.59 33.8075 18.2136 33.4223C17.8371 33.0371 17.6486 32.5082 17.6479 31.8356C17.6479 31.1661 17.8346 30.6387 18.208 30.2536C18.5813 29.8684 19.09 29.6752 19.734 29.674C20.3288 29.674 20.7955 29.8177 21.134 30.1052C21.4747 30.3917 21.666 30.8052 21.7071 31.3344H20.448C20.4504 31.2527 20.4366 31.1713 20.4074 31.0949C20.3783 31.0185 20.3344 30.9486 20.2782 30.8892C20.222 30.8299 20.1547 30.7821 20.08 30.7488C20.0054 30.7155 19.9249 30.6972 19.8432 30.695C19.8121 30.6924 19.7809 30.6924 19.7498 30.695C19.6372 30.688 19.5246 30.7101 19.4229 30.7591C19.3213 30.8081 19.2339 30.8825 19.1693 30.975C19.0399 31.1617 18.9752 31.447 18.9752 31.8309C18.9752 32.2148 19.0439 32.497 19.1814 32.6775C19.2503 32.772 19.3417 32.8479 19.4473 32.8981C19.5529 32.9483 19.6695 32.9713 19.7863 32.9649C19.8748 32.9692 19.9633 32.9557 20.0466 32.9254C20.1299 32.8952 20.2064 32.8486 20.2716 32.7885C20.4005 32.6528 20.4753 32.4745 20.4816 32.2873L20.4825 32.2948Z" fill="#2B2D93"/>
<path fill-rule="evenodd" clip-rule="evenodd" d="M23.147 33.8852V30.8649H21.9663V29.7841H25.6213V30.8649H24.4649V33.8852H23.147Z" fill="#2B2D93"/>
<path fill-rule="evenodd" clip-rule="evenodd" d="M28.7313 32.2948H29.9801C29.9428 32.8361 29.7521 33.2558 29.408 33.5539C29.0639 33.8519 28.5991 34.0007 28.0136 34C27.3559 34 26.8388 33.8075 26.4623 33.4223C26.0859 33.0371 25.8974 32.5082 25.8967 31.8356C25.8967 31.1661 26.0834 30.6387 26.4567 30.2536C26.8301 29.8684 27.3391 29.6752 27.9837 29.674C28.5773 29.674 29.044 29.8177 29.3837 30.1052C29.7235 30.3917 29.9148 30.8052 29.9559 31.3344H28.6968C28.7013 31.1694 28.6401 31.0094 28.5267 30.8895C28.4133 30.7696 28.2569 30.6997 28.092 30.695C28.0609 30.6924 28.0297 30.6924 27.9986 30.695C27.8858 30.6874 27.7728 30.7091 27.6709 30.7582C27.569 30.8073 27.4815 30.882 27.4172 30.975C27.2884 31.1617 27.224 31.447 27.224 31.8309C27.224 32.2127 27.2921 32.4945 27.4302 32.6775C27.4988 32.7721 27.59 32.848 27.6955 32.8982C27.801 32.9485 27.9174 32.9714 28.0341 32.9649C28.1228 32.9694 28.2115 32.9561 28.295 32.9258C28.3785 32.8955 28.4551 32.8488 28.5204 32.7885C28.6483 32.6521 28.7229 32.4742 28.7304 32.2873L28.7313 32.2948Z" fill="#2B2D93"/>
<path d="M34.8413 8.39089C34.7282 7.97167 34.7972 7.47798 34.5848 7.11115C34.3697 6.73881 33.9063 6.55127 33.6029 6.24788C33.2995 5.94449 33.112 5.48114 32.7396 5.26601C32.3728 5.05364 31.8791 5.11983 31.4599 5.00951C31.0545 4.90194 30.6601 4.59304 30.2215 4.59304C29.783 4.59304 29.3886 4.90194 28.9832 5.00951C28.5639 5.12259 28.0702 5.05364 27.7034 5.26601C27.3311 5.48114 27.1435 5.94449 26.8401 6.24788C26.5368 6.55127 26.0734 6.73881 25.8583 7.11115C25.6459 7.47798 25.7121 7.97167 25.6018 8.39089C25.4942 8.79633 25.1853 9.19073 25.1853 9.62926C25.1853 10.0678 25.4942 10.4622 25.6018 10.8676C25.7149 11.2869 25.6459 11.7806 25.8583 12.1474C26.0734 12.5197 26.5368 12.7073 26.8401 13.0107C27.1435 13.314 27.3311 13.7774 27.7034 13.9925C28.0702 14.2049 28.5639 14.1387 28.9832 14.249C29.3886 14.3566 29.783 14.6655 30.2215 14.6655C30.6601 14.6655 31.0545 14.3566 31.4599 14.249C31.8791 14.1359 32.3728 14.2049 32.7396 13.9925C33.112 13.7774 33.2995 13.314 33.6029 13.0107C33.9063 12.7073 34.3697 12.5197 34.5848 12.1474C34.7972 11.7806 34.731 11.2869 34.8413 10.8676C34.9488 10.4622 35.2578 10.0678 35.2578 9.62926C35.2578 9.19073 34.9516 8.79633 34.8413 8.39089Z" fill="#D84E55"/>
<path d="M29.6113 11.9243L27.4849 9.80063L28.464 8.82152L29.6113 9.96612L32.2453 7.33217L33.2244 8.31128L29.6113 11.9243Z" fill="#F3FAFF"/>
</g>
<defs>
<filter id="filter0_b_16302_58207" x="-20" y="-20" width="80" height="80" filterUnits="userSpaceOnUse" color-interpolation-filters="sRGB">
<feFlood flood-opacity="0" result="BackgroundImageFix"/>
<feGaussianBlur in="BackgroundImageFix" stdDeviation="10"/>
<feComposite in2="SourceAlpha" operator="in" result="effect1_backgroundBlur_16302_58207"/>
<feBlend mode="normal" in="SourceGraphic" in2="effect1_backgroundBlur_16302_58207" result="shape"/>
</filter>
</defs>
</svg>
